<mxfile host="65bd71144e">
    <diagram id="1vAymka3_VFfGlP7PnY6" name="Page-1">
        <mxGraphModel dx="1172" dy="580" grid="1" gridSize="10" guides="1" tooltips="1" connect="1" arrows="1" fold="1" page="1" pageScale="1" pageWidth="850" pageHeight="1100" math="0" shadow="0">
            <root>
                <mxCell id="0"/>
                <mxCell id="1" parent="0"/>
                <mxCell id="161" value="" style="rounded=1;whiteSpace=wrap;html=1;fillColor=#E6E6E6;strokeColor=none;" vertex="1" parent="1">
                    <mxGeometry x="96" y="170" width="700" height="910" as="geometry"/>
                </mxCell>
                <mxCell id="79" value="" style="rounded=0;whiteSpace=wrap;html=1;fillColor=none;" vertex="1" parent="1">
                    <mxGeometry x="130" y="248" width="640" height="160" as="geometry"/>
                </mxCell>
                <mxCell id="80" value="" style="rounded=1;whiteSpace=wrap;html=1;fillColor=none;dashed=1;" vertex="1" parent="1">
                    <mxGeometry x="161" y="630" width="605" height="140" as="geometry"/>
                </mxCell>
                <mxCell id="81" value="" style="rounded=0;whiteSpace=wrap;html=1;fillColor=none;" vertex="1" parent="1">
                    <mxGeometry x="130" y="482" width="650" height="498" as="geometry"/>
                </mxCell>
                <mxCell id="82" value="" style="rounded=1;whiteSpace=wrap;html=1;fillColor=none;dashed=1;" vertex="1" parent="1">
                    <mxGeometry x="161" y="530" width="605" height="60" as="geometry"/>
                </mxCell>
                <mxCell id="83" value="s[0]" style="rounded=0;whiteSpace=wrap;html=1;fillColor=#0066CC;fontColor=#FFFFFF;fontStyle=1;strokeColor=#FFFFFF;" vertex="1" parent="1">
                    <mxGeometry x="188" y="81" width="40" height="20" as="geometry"/>
                </mxCell>
                <mxCell id="84" value="s[1]" style="rounded=0;whiteSpace=wrap;html=1;fillColor=#0066CC;fontColor=#FFFFFF;fontStyle=1;strokeColor=#FFFFFF;" vertex="1" parent="1">
                    <mxGeometry x="228" y="81" width="40" height="20" as="geometry"/>
                </mxCell>
                <mxCell id="85" value="s[2]" style="rounded=0;whiteSpace=wrap;html=1;fillColor=#0066CC;fontColor=#FFFFFF;fontStyle=1;strokeColor=none;" vertex="1" parent="1">
                    <mxGeometry x="268" y="81" width="40" height="20" as="geometry"/>
                </mxCell>
                <mxCell id="86" value="..." style="rounded=0;whiteSpace=wrap;html=1;fillColor=#0066CC;fontColor=#FFFFFF;fontStyle=1;strokeColor=#FFFFFF;" vertex="1" parent="1">
                    <mxGeometry x="308" y="81" width="40" height="20" as="geometry"/>
                </mxCell>
                <mxCell id="87" value="s[i]" style="rounded=0;whiteSpace=wrap;html=1;fillColor=#0066CC;fontColor=#FFFFFF;fontStyle=1;strokeColor=#FFFFFF;" vertex="1" parent="1">
                    <mxGeometry x="348" y="81" width="40" height="20" as="geometry"/>
                </mxCell>
                <mxCell id="88" value="p[0]" style="rounded=0;whiteSpace=wrap;html=1;fillColor=#FF6666;fontColor=#FFFFFF;fontStyle=1;strokeColor=#FFFFFF;" vertex="1" parent="1">
                    <mxGeometry x="498" y="81" width="40" height="20" as="geometry"/>
                </mxCell>
                <mxCell id="89" value="p[1]" style="rounded=0;whiteSpace=wrap;html=1;fillColor=#FF6666;fontColor=#FFFFFF;fontStyle=1;strokeColor=#FFFFFF;" vertex="1" parent="1">
                    <mxGeometry x="538" y="81" width="40" height="20" as="geometry"/>
                </mxCell>
                <mxCell id="90" value="..." style="rounded=0;whiteSpace=wrap;html=1;fillColor=#FF6666;fontColor=#FFFFFF;fontStyle=1;strokeColor=#FFFFFF;" vertex="1" parent="1">
                    <mxGeometry x="618" y="81" width="40" height="20" as="geometry"/>
                </mxCell>
                <mxCell id="91" value="p[j]" style="rounded=0;whiteSpace=wrap;html=1;fillColor=#FF6666;fontColor=#FFFFFF;fontStyle=1;strokeColor=#FFFFFF;" vertex="1" parent="1">
                    <mxGeometry x="658" y="81" width="40" height="20" as="geometry"/>
                </mxCell>
                <mxCell id="92" value="p[2]" style="rounded=0;whiteSpace=wrap;html=1;fillColor=#FF6666;fontColor=#FFFFFF;fontStyle=1;strokeColor=#FFFFFF;" vertex="1" parent="1">
                    <mxGeometry x="578" y="81" width="40" height="20" as="geometry"/>
                </mxCell>
                <mxCell id="93" value="If P[j] is not *" style="text;html=1;align=center;verticalAlign=middle;whiteSpace=wrap;rounded=0;fontStyle=1;fontSize=14;" vertex="1" parent="1">
                    <mxGeometry x="80" y="210" width="250" height="30" as="geometry"/>
                </mxCell>
                <mxCell id="94" value="s[0]" style="rounded=0;whiteSpace=wrap;html=1;fillColor=#0066CC;fontColor=#FFFFFF;fontStyle=1;strokeColor=#FFFFFF;" vertex="1" parent="1">
                    <mxGeometry x="160" y="270" width="40" height="20" as="geometry"/>
                </mxCell>
                <mxCell id="95" value="s[1]" style="rounded=0;whiteSpace=wrap;html=1;fillColor=#0066CC;fontColor=#FFFFFF;fontStyle=1;strokeColor=#FFFFFF;" vertex="1" parent="1">
                    <mxGeometry x="200" y="270" width="40" height="20" as="geometry"/>
                </mxCell>
                <mxCell id="96" value="s[2]" style="rounded=0;whiteSpace=wrap;html=1;fillColor=#0066CC;fontColor=#FFFFFF;fontStyle=1;strokeColor=#FFFFFF;" vertex="1" parent="1">
                    <mxGeometry x="240" y="270" width="40" height="20" as="geometry"/>
                </mxCell>
                <mxCell id="97" value="..." style="rounded=0;whiteSpace=wrap;html=1;fillColor=#0066CC;fontColor=#FFFFFF;fontStyle=1;strokeColor=#FFFFFF;" vertex="1" parent="1">
                    <mxGeometry x="280" y="270" width="40" height="20" as="geometry"/>
                </mxCell>
                <mxCell id="98" value="s[i-1]" style="rounded=0;whiteSpace=wrap;html=1;fillColor=#0066CC;fontColor=#FFFFFF;fontStyle=1;strokeColor=#FFFFFF;" vertex="1" parent="1">
                    <mxGeometry x="320" y="270" width="40" height="20" as="geometry"/>
                </mxCell>
                <mxCell id="99" value="p[0]" style="rounded=0;whiteSpace=wrap;html=1;fillColor=#FF6666;fontColor=#FFFFFF;fontStyle=1;strokeColor=#FFFFFF;" vertex="1" parent="1">
                    <mxGeometry x="470" y="270" width="40" height="20" as="geometry"/>
                </mxCell>
                <mxCell id="100" value="p[1]" style="rounded=0;whiteSpace=wrap;html=1;fillColor=#FF6666;fontColor=#FFFFFF;fontStyle=1;strokeColor=#FFFFFF;" vertex="1" parent="1">
                    <mxGeometry x="510" y="270" width="40" height="20" as="geometry"/>
                </mxCell>
                <mxCell id="101" value="..." style="rounded=0;whiteSpace=wrap;html=1;fillColor=#FF6666;fontColor=#FFFFFF;fontStyle=1;strokeColor=#FFFFFF;" vertex="1" parent="1">
                    <mxGeometry x="590" y="270" width="40" height="20" as="geometry"/>
                </mxCell>
                <mxCell id="102" value="p[j-1]" style="rounded=0;whiteSpace=wrap;html=1;fillColor=#FF6666;fontColor=#FFFFFF;fontStyle=1;strokeColor=#FFFFFF;" vertex="1" parent="1">
                    <mxGeometry x="630" y="270" width="40" height="20" as="geometry"/>
                </mxCell>
                <mxCell id="103" value="p[2]" style="rounded=0;whiteSpace=wrap;html=1;fillColor=#FF6666;fontColor=#FFFFFF;fontStyle=1;strokeColor=#FFFFFF;" vertex="1" parent="1">
                    <mxGeometry x="550" y="270" width="40" height="20" as="geometry"/>
                </mxCell>
                <mxCell id="104" value="Match" style="text;html=1;align=center;verticalAlign=middle;resizable=0;points=[];autosize=1;strokeColor=none;fillColor=none;" vertex="1" parent="1">
                    <mxGeometry x="370" y="268" width="60" height="30" as="geometry"/>
                </mxCell>
                <mxCell id="105" value="s[i]" style="rounded=0;whiteSpace=wrap;html=1;fillColor=#0066CC;fontColor=#FFFFFF;fontStyle=1;strokeColor=#FFFFFF;" vertex="1" parent="1">
                    <mxGeometry x="318" y="345" width="40" height="20" as="geometry"/>
                </mxCell>
                <mxCell id="106" value="p[j]" style="rounded=0;whiteSpace=wrap;html=1;fillColor=#FF6666;fontColor=#FFFFFF;fontStyle=1;strokeColor=#FFFFFF;" vertex="1" parent="1">
                    <mxGeometry x="474" y="345" width="40" height="20" as="geometry"/>
                </mxCell>
                <mxCell id="107" value="Match" style="text;html=1;align=center;verticalAlign=middle;resizable=0;points=[];autosize=1;strokeColor=none;fillColor=none;" vertex="1" parent="1">
                    <mxGeometry x="380" y="345" width="60" height="30" as="geometry"/>
                </mxCell>
                <mxCell id="108" value="If P[j] is *" style="text;html=1;align=left;verticalAlign=middle;whiteSpace=wrap;rounded=0;fontStyle=1;fontSize=14;" vertex="1" parent="1">
                    <mxGeometry x="165" y="430" width="250" height="30" as="geometry"/>
                </mxCell>
                <mxCell id="109" value="s[0]" style="rounded=0;whiteSpace=wrap;html=1;fillColor=#0066CC;fontColor=#FFFFFF;fontStyle=1;strokeColor=#FFFFFF;" vertex="1" parent="1">
                    <mxGeometry x="170" y="550" width="40" height="20" as="geometry"/>
                </mxCell>
                <mxCell id="110" value="s[1]" style="rounded=0;whiteSpace=wrap;html=1;fillColor=#0066CC;fontColor=#FFFFFF;fontStyle=1;strokeColor=#FFFFFF;" vertex="1" parent="1">
                    <mxGeometry x="210" y="550" width="40" height="20" as="geometry"/>
                </mxCell>
                <mxCell id="111" value="s[2]" style="rounded=0;whiteSpace=wrap;html=1;fillColor=#0066CC;fontColor=#FFFFFF;fontStyle=1;strokeColor=#FFFFFF;" vertex="1" parent="1">
                    <mxGeometry x="250" y="550" width="40" height="20" as="geometry"/>
                </mxCell>
                <mxCell id="112" value="..." style="rounded=0;whiteSpace=wrap;html=1;fillColor=#0066CC;fontColor=#FFFFFF;fontStyle=1;strokeColor=#FFFFFF;" vertex="1" parent="1">
                    <mxGeometry x="290" y="550" width="40" height="20" as="geometry"/>
                </mxCell>
                <mxCell id="113" value="s[i]" style="rounded=0;whiteSpace=wrap;html=1;fillColor=#0066CC;fontColor=#FFFFFF;fontStyle=1;strokeColor=#FFFFFF;" vertex="1" parent="1">
                    <mxGeometry x="330" y="550" width="40" height="20" as="geometry"/>
                </mxCell>
                <mxCell id="114" value="p[0]" style="rounded=0;whiteSpace=wrap;html=1;fillColor=#FF6666;fontColor=#FFFFFF;fontStyle=1;strokeColor=#FFFFFF;" vertex="1" parent="1">
                    <mxGeometry x="480" y="550" width="40" height="20" as="geometry"/>
                </mxCell>
                <mxCell id="115" value="p[1]" style="rounded=0;whiteSpace=wrap;html=1;fillColor=#FF6666;fontColor=#FFFFFF;fontStyle=1;strokeColor=#FFFFFF;" vertex="1" parent="1">
                    <mxGeometry x="520" y="550" width="40" height="20" as="geometry"/>
                </mxCell>
                <mxCell id="116" value="..." style="rounded=0;whiteSpace=wrap;html=1;fillColor=#FF6666;fontColor=#FFFFFF;fontStyle=1;strokeColor=#FFFFFF;" vertex="1" parent="1">
                    <mxGeometry x="600" y="550" width="40" height="20" as="geometry"/>
                </mxCell>
                <mxCell id="117" value="p[j-2]" style="rounded=0;whiteSpace=wrap;html=1;fillColor=#FF6666;fontColor=#FFFFFF;fontStyle=1;strokeColor=#FFFFFF;" vertex="1" parent="1">
                    <mxGeometry x="640" y="550" width="40" height="20" as="geometry"/>
                </mxCell>
                <mxCell id="118" value="p[2]" style="rounded=0;whiteSpace=wrap;html=1;fillColor=#FF6666;fontColor=#FFFFFF;fontStyle=1;strokeColor=#FFFFFF;" vertex="1" parent="1">
                    <mxGeometry x="560" y="550" width="40" height="20" as="geometry"/>
                </mxCell>
                <mxCell id="119" value="case 1: 0 occurence" style="text;html=1;align=center;verticalAlign=middle;resizable=0;points=[];autosize=1;strokeColor=none;fillColor=none;fontStyle=1;fontSize=16;" vertex="1" parent="1">
                    <mxGeometry x="165" y="490" width="170" height="30" as="geometry"/>
                </mxCell>
                <mxCell id="120" value="p[j-1]" style="rounded=0;whiteSpace=wrap;html=1;fillColor=#FFCCCC;fontColor=#FFFFFF;fontStyle=1;strokeColor=#FFFFFF;" vertex="1" parent="1">
                    <mxGeometry x="680" y="550" width="40" height="20" as="geometry"/>
                </mxCell>
                <mxCell id="121" value="p[i]" style="rounded=0;whiteSpace=wrap;html=1;fillColor=#FFCCCC;fontColor=#FFFFFF;fontStyle=1;strokeColor=#FFFFFF;" vertex="1" parent="1">
                    <mxGeometry x="720" y="550" width="40" height="20" as="geometry"/>
                </mxCell>
                <mxCell id="122" value="case 2: once&amp;nbsp;" style="text;html=1;align=center;verticalAlign=middle;resizable=0;points=[];autosize=1;strokeColor=none;fillColor=none;fontStyle=1;fontSize=15;" vertex="1" parent="1">
                    <mxGeometry x="170" y="590" width="110" height="30" as="geometry"/>
                </mxCell>
                <mxCell id="123" value="s[0]" style="rounded=0;whiteSpace=wrap;html=1;fillColor=#0066CC;fontColor=#FFFFFF;fontStyle=1;strokeColor=#FFFFFF;" vertex="1" parent="1">
                    <mxGeometry x="170" y="642" width="40" height="20" as="geometry"/>
                </mxCell>
                <mxCell id="124" value="s[1]" style="rounded=0;whiteSpace=wrap;html=1;fillColor=#0066CC;fontColor=#FFFFFF;fontStyle=1;strokeColor=#FFFFFF;" vertex="1" parent="1">
                    <mxGeometry x="210" y="642" width="40" height="20" as="geometry"/>
                </mxCell>
                <mxCell id="125" value="s[2]" style="rounded=0;whiteSpace=wrap;html=1;fillColor=#0066CC;fontColor=#FFFFFF;fontStyle=1;strokeColor=#FFFFFF;" vertex="1" parent="1">
                    <mxGeometry x="250" y="642" width="40" height="20" as="geometry"/>
                </mxCell>
                <mxCell id="126" value="..." style="rounded=0;whiteSpace=wrap;html=1;fillColor=#0066CC;fontColor=#FFFFFF;fontStyle=1;strokeColor=#FFFFFF;" vertex="1" parent="1">
                    <mxGeometry x="290" y="642" width="40" height="20" as="geometry"/>
                </mxCell>
                <mxCell id="127" value="s[i-1]" style="rounded=0;whiteSpace=wrap;html=1;fillColor=#0066CC;fontColor=#FFFFFF;fontStyle=1;strokeColor=#FFFFFF;" vertex="1" parent="1">
                    <mxGeometry x="330" y="642" width="40" height="20" as="geometry"/>
                </mxCell>
                <mxCell id="128" value="p[0]" style="rounded=0;whiteSpace=wrap;html=1;fillColor=#FF6666;fontColor=#FFFFFF;fontStyle=1;strokeColor=#FFFFFF;" vertex="1" parent="1">
                    <mxGeometry x="480" y="642" width="40" height="20" as="geometry"/>
                </mxCell>
                <mxCell id="129" value="p[1]" style="rounded=0;whiteSpace=wrap;html=1;fillColor=#FF6666;fontColor=#FFFFFF;fontStyle=1;strokeColor=#FFFFFF;" vertex="1" parent="1">
                    <mxGeometry x="520" y="642" width="40" height="20" as="geometry"/>
                </mxCell>
                <mxCell id="130" value="..." style="rounded=0;whiteSpace=wrap;html=1;fillColor=#FF6666;fontColor=#FFFFFF;fontStyle=1;strokeColor=#FFFFFF;" vertex="1" parent="1">
                    <mxGeometry x="600" y="642" width="40" height="20" as="geometry"/>
                </mxCell>
                <mxCell id="131" value="p[j-2]" style="rounded=0;whiteSpace=wrap;html=1;fillColor=#FF6666;fontColor=#FFFFFF;fontStyle=1;strokeColor=#FFFFFF;" vertex="1" parent="1">
                    <mxGeometry x="640" y="642" width="40" height="20" as="geometry"/>
                </mxCell>
                <mxCell id="132" value="p[2]" style="rounded=0;whiteSpace=wrap;html=1;fillColor=#FF6666;fontColor=#FFFFFF;fontStyle=1;strokeColor=#FFFFFF;" vertex="1" parent="1">
                    <mxGeometry x="560" y="642" width="40" height="20" as="geometry"/>
                </mxCell>
                <mxCell id="133" value="Match" style="text;html=1;align=center;verticalAlign=middle;resizable=0;points=[];autosize=1;strokeColor=none;fillColor=none;" vertex="1" parent="1">
                    <mxGeometry x="380" y="640" width="60" height="30" as="geometry"/>
                </mxCell>
                <mxCell id="134" value="case 3: &amp;gt;1 occurence" style="text;html=1;align=center;verticalAlign=middle;resizable=0;points=[];autosize=1;strokeColor=none;fillColor=none;fontStyle=1;fontSize=15;" vertex="1" parent="1">
                    <mxGeometry x="170" y="780" width="170" height="30" as="geometry"/>
                </mxCell>
                <mxCell id="135" value="s[0]" style="rounded=0;whiteSpace=wrap;html=1;fillColor=#0066CC;fontColor=#FFFFFF;fontStyle=1;strokeColor=#FFFFFF;" vertex="1" parent="1">
                    <mxGeometry x="170" y="832" width="40" height="20" as="geometry"/>
                </mxCell>
                <mxCell id="136" value="s[1]" style="rounded=0;whiteSpace=wrap;html=1;fillColor=#0066CC;fontColor=#FFFFFF;fontStyle=1;strokeColor=#FFFFFF;" vertex="1" parent="1">
                    <mxGeometry x="210" y="832" width="40" height="20" as="geometry"/>
                </mxCell>
                <mxCell id="137" value="s[2]" style="rounded=0;whiteSpace=wrap;html=1;fillColor=#0066CC;fontColor=#FFFFFF;fontStyle=1;strokeColor=#FFFFFF;" vertex="1" parent="1">
                    <mxGeometry x="250" y="832" width="40" height="20" as="geometry"/>
                </mxCell>
                <mxCell id="138" value="..." style="rounded=0;whiteSpace=wrap;html=1;fillColor=#0066CC;fontColor=#FFFFFF;fontStyle=1;strokeColor=#FFFFFF;" vertex="1" parent="1">
                    <mxGeometry x="290" y="832" width="40" height="20" as="geometry"/>
                </mxCell>
                <mxCell id="139" value="s[i-1]" style="rounded=0;whiteSpace=wrap;html=1;fillColor=#0066CC;fontColor=#FFFFFF;fontStyle=1;strokeColor=#FFFFFF;" vertex="1" parent="1">
                    <mxGeometry x="330" y="832" width="40" height="20" as="geometry"/>
                </mxCell>
                <mxCell id="140" value="p[0]" style="rounded=0;whiteSpace=wrap;html=1;fillColor=#FF6666;fontColor=#FFFFFF;fontStyle=1;strokeColor=#FFFFFF;" vertex="1" parent="1">
                    <mxGeometry x="480" y="832" width="40" height="20" as="geometry"/>
                </mxCell>
                <mxCell id="141" value="p[1]" style="rounded=0;whiteSpace=wrap;html=1;fillColor=#FF6666;fontColor=#FFFFFF;fontStyle=1;strokeColor=#FFFFFF;" vertex="1" parent="1">
                    <mxGeometry x="520" y="832" width="40" height="20" as="geometry"/>
                </mxCell>
                <mxCell id="142" value="..." style="rounded=0;whiteSpace=wrap;html=1;fillColor=#FF6666;fontColor=#FFFFFF;fontStyle=1;strokeColor=#FFFFFF;" vertex="1" parent="1">
                    <mxGeometry x="600" y="832" width="40" height="20" as="geometry"/>
                </mxCell>
                <mxCell id="143" value="p[j]" style="rounded=0;whiteSpace=wrap;html=1;fillColor=#FF6666;fontColor=#FFFFFF;fontStyle=1;strokeColor=#FFFFFF;" vertex="1" parent="1">
                    <mxGeometry x="640" y="832" width="40" height="20" as="geometry"/>
                </mxCell>
                <mxCell id="144" value="p[2]" style="rounded=0;whiteSpace=wrap;html=1;fillColor=#FF6666;fontColor=#FFFFFF;fontStyle=1;strokeColor=#FFFFFF;" vertex="1" parent="1">
                    <mxGeometry x="560" y="832" width="40" height="20" as="geometry"/>
                </mxCell>
                <mxCell id="145" value="Match" style="text;html=1;align=center;verticalAlign=middle;resizable=0;points=[];autosize=1;strokeColor=none;fillColor=none;" vertex="1" parent="1">
                    <mxGeometry x="380" y="830" width="60" height="30" as="geometry"/>
                </mxCell>
                <mxCell id="146" value="s[i]" style="rounded=0;whiteSpace=wrap;html=1;fillColor=#0066CC;fontColor=#FFFFFF;fontStyle=1;strokeColor=#FFFFFF;" vertex="1" parent="1">
                    <mxGeometry x="325" y="932" width="40" height="20" as="geometry"/>
                </mxCell>
                <mxCell id="147" value="p[j-1]" style="rounded=0;whiteSpace=wrap;html=1;fillColor=#FF6666;fontColor=#FFFFFF;fontStyle=1;strokeColor=#FFFFFF;" vertex="1" parent="1">
                    <mxGeometry x="580" y="932" width="40" height="20" as="geometry"/>
                </mxCell>
                <mxCell id="148" value="Match" style="text;html=1;align=center;verticalAlign=middle;resizable=0;points=[];autosize=1;strokeColor=none;fillColor=none;" vertex="1" parent="1">
                    <mxGeometry x="375" y="930" width="60" height="30" as="geometry"/>
                </mxCell>
                <mxCell id="149" value="s[i]" style="rounded=0;whiteSpace=wrap;html=1;fillColor=#0066CC;fontColor=#FFFFFF;fontStyle=1;strokeColor=#FFFFFF;" vertex="1" parent="1">
                    <mxGeometry x="318" y="740" width="40" height="20" as="geometry"/>
                </mxCell>
                <mxCell id="150" value="Match" style="text;html=1;align=center;verticalAlign=middle;resizable=0;points=[];autosize=1;strokeColor=none;fillColor=none;" vertex="1" parent="1">
                    <mxGeometry x="376" y="738" width="60" height="30" as="geometry"/>
                </mxCell>
                <mxCell id="151" value="p[j-1]" style="rounded=0;whiteSpace=wrap;html=1;fillColor=#FF6666;fontColor=#FFFFFF;fontStyle=1;strokeColor=#FFFFFF;" vertex="1" parent="1">
                    <mxGeometry x="580" y="738" width="40" height="20" as="geometry"/>
                </mxCell>
                <mxCell id="152" value="p[j]" style="rounded=0;whiteSpace=wrap;html=1;fillColor=#FF6666;fontColor=#FFFFFF;fontStyle=1;strokeColor=#FFFFFF;" vertex="1" parent="1">
                    <mxGeometry x="620" y="738" width="40" height="20" as="geometry"/>
                </mxCell>
                <mxCell id="153" value="p[j]" style="rounded=0;whiteSpace=wrap;html=1;fillColor=#FF6666;fontColor=#FFFFFF;fontStyle=1;strokeColor=#FFFFFF;" vertex="1" parent="1">
                    <mxGeometry x="620" y="932" width="40" height="20" as="geometry"/>
                </mxCell>
                <mxCell id="154" value="+" style="text;html=1;align=center;verticalAlign=middle;resizable=0;points=[];autosize=1;strokeColor=none;fillColor=none;fontStyle=1;fontSize=22;" vertex="1" parent="1">
                    <mxGeometry x="380" y="305" width="40" height="40" as="geometry"/>
                </mxCell>
                <mxCell id="155" value="+" style="text;html=1;align=center;verticalAlign=middle;resizable=0;points=[];autosize=1;strokeColor=none;fillColor=none;fontStyle=1;fontSize=22;" vertex="1" parent="1">
                    <mxGeometry x="386" y="690" width="40" height="40" as="geometry"/>
                </mxCell>
                <mxCell id="156" value="+" style="text;html=1;align=center;verticalAlign=middle;resizable=0;points=[];autosize=1;strokeColor=none;fillColor=none;fontStyle=1;fontSize=22;" vertex="1" parent="1">
                    <mxGeometry x="385" y="880" width="40" height="40" as="geometry"/>
                </mxCell>
                <mxCell id="157" value="" style="rounded=1;whiteSpace=wrap;html=1;fillColor=none;dashed=1;" vertex="1" parent="1">
                    <mxGeometry x="161" y="820" width="605" height="140" as="geometry"/>
                </mxCell>
                <mxCell id="158" value="Match" style="text;html=1;align=center;verticalAlign=middle;resizable=0;points=[];autosize=1;strokeColor=none;fillColor=none;" vertex="1" parent="1">
                    <mxGeometry x="386" y="545" width="60" height="30" as="geometry"/>
                </mxCell>
                <mxCell id="159" value="Match" style="text;html=1;align=center;verticalAlign=middle;resizable=0;points=[];autosize=1;strokeColor=none;fillColor=none;" vertex="1" parent="1">
                    <mxGeometry x="413" y="76" width="60" height="30" as="geometry"/>
                </mxCell>
                <mxCell id="160" value="" style="shape=curlyBracket;whiteSpace=wrap;html=1;rounded=1;labelPosition=left;verticalLabelPosition=middle;align=right;verticalAlign=middle;rotation=-90;" vertex="1" parent="1">
                    <mxGeometry x="401" y="-7" width="66" height="300" as="geometry"/>
                </mxCell>
            </root>
        </mxGraphModel>
    </diagram>
</mxfile>